<?xml version="1.0" standalone="no"?>
<!DOCTYPE svg PUBLIC "-//W3C//DTD SVG 20010904//EN"
 "http://www.w3.org/TR/2001/REC-SVG-20010904/DTD/svg10.dtd">
<svg version="1.0" xmlns="http://www.w3.org/2000/svg"
 width="260.000000pt" height="260.000000pt" viewBox="0 0 260.000000 260.000000"
 preserveAspectRatio="xMidYMid meet">
<metadata>
Created by potrace 1.11, written by Peter Selinger 2001-2013
</metadata>
<g transform="translate(0.000000,260.000000) scale(0.100000,-0.100000)"
fill="#000000" stroke="none">
<path d="M44 2588 c-12 -5 -27 -21 -33 -34 -16 -35 -16 -2473 0 -2507 6 -14
22 -30 36 -36 35 -16 2476 -16 2506 1 12 6 27 18 34 27 10 12 12 294 13 1242
0 675 -3 1240 -6 1256 -4 18 -17 36 -34 46 -26 16 -129 17 -1262 16 -827 0
-1240 -4 -1254 -11z"/>
</g>
</svg>
