<?xml version="1.0" encoding="utf-8"?>
<!-- Generator: Adobe Illustrator 22.1.0, SVG Export Plug-In . SVG Version: 6.00 Build 0)  -->
<svg version="1.1" id="Component" xmlns="http://www.w3.org/2000/svg" xmlns:xlink="http://www.w3.org/1999/xlink" x="0px" y="0px"
	 viewBox="0 0 168 51.396" style="enable-background:new 0 0 168 51.396;" xml:space="preserve">
<g id="Group_1228" transform="translate(61.466 5.228)">
	<path id="Path_1467" style="fill:#BAC4C9;" d="M0,0.275h2.916c0.373-0.003,0.744,0.053,1.1,0.165c0.301,0.086,0.569,0.26,0.77,0.5
		c0.178,0.166,0.31,0.374,0.385,0.605c0.087,0.249,0.142,0.507,0.165,0.77l0,0C5.331,2.557,5.294,2.797,5.226,3.03
		c-0.055,0.211-0.17,0.402-0.33,0.55c-0.126,0.188-0.298,0.339-0.5,0.44C4.205,4.134,4.002,4.226,3.791,4.295l1.761,2.476H4.176
		l-1.6-2.256H1.145v2.256H0V0.275z M2.861,3.522c0.35,0.009,0.695-0.087,0.99-0.275C4.095,3.043,4.236,2.74,4.236,2.422l0,0
		c0.008-0.309-0.111-0.607-0.33-0.825c-0.292-0.196-0.64-0.292-0.991-0.275H1.209v2.2L2.861,3.522z"/>
	<path id="Path_1468" style="fill:#BAC4C9;" d="M8.914,6.934c-0.337-0.001-0.671-0.057-0.99-0.165
		c-0.317-0.111-0.601-0.3-0.825-0.55C6.866,5.98,6.68,5.7,6.549,5.394C6.418,5.06,6.343,4.706,6.329,4.348l0,0
		C6.325,4.011,6.381,3.675,6.494,3.357c0.099-0.311,0.271-0.593,0.5-0.825c0.219-0.231,0.48-0.418,0.77-0.55
		c0.313-0.137,0.65-0.212,0.991-0.22c0.361-0.012,0.72,0.063,1.046,0.22c0.285,0.139,0.53,0.347,0.715,0.605
		c0.199,0.243,0.349,0.524,0.44,0.825c0.108,0.319,0.164,0.654,0.165,0.991v0.33H7.489c0.04,0.364,0.219,0.699,0.5,0.935
		c0.472,0.37,1.115,0.435,1.651,0.165c0.226-0.109,0.431-0.258,0.605-0.44l0.66,0.605c-0.223,0.278-0.505,0.503-0.825,0.66
		C9.724,6.854,9.321,6.95,8.914,6.934z M10.07,3.962c-0.01-0.171-0.047-0.34-0.11-0.5C9.819,3.175,9.587,2.943,9.3,2.802
		c-0.16-0.063-0.329-0.1-0.5-0.11C8.463,2.679,8.139,2.821,7.92,3.077C7.677,3.334,7.523,3.661,7.48,4.012h2.586L10.07,3.962z"/>
	<path id="Path_1469" style="fill:#BAC4C9;" d="M14.582,8.309c-0.775,0.002-1.535-0.207-2.2-0.605l0.44-0.825
		c0.264,0.151,0.54,0.279,0.825,0.385c0.299,0.113,0.616,0.169,0.935,0.165c0.745,0.106,1.435-0.411,1.541-1.156
		c0.018-0.128,0.018-0.258,0-0.385V5.503c-0.196,0.262-0.439,0.485-0.715,0.66c-0.316,0.188-0.678,0.283-1.046,0.275
		c-0.283-0.002-0.563-0.058-0.825-0.165c-0.257-0.114-0.498-0.262-0.715-0.44c-0.215-0.201-0.385-0.444-0.5-0.715
		c-0.117-0.317-0.173-0.653-0.165-0.99l0,0c-0.004-0.337,0.052-0.673,0.165-0.991c0.101-0.278,0.273-0.525,0.5-0.715
		c0.203-0.197,0.447-0.347,0.715-0.44c0.262-0.108,0.541-0.164,0.824-0.166c0.368-0.008,0.73,0.087,1.046,0.275
		c0.262,0.171,0.503,0.375,0.715,0.605V1.981h1.156v3.8c0.038,0.677-0.178,1.344-0.605,1.871c-0.232,0.229-0.514,0.401-0.825,0.5
		C15.436,8.265,15.009,8.318,14.582,8.309z M14.692,5.448c0.188-0.005,0.374-0.042,0.55-0.11c0.165-0.058,0.315-0.152,0.44-0.275
		c0.123-0.136,0.233-0.284,0.33-0.44c0.068-0.176,0.105-0.362,0.11-0.55l0,0c-0.005-0.188-0.042-0.374-0.11-0.55
		c-0.059-0.179-0.175-0.334-0.33-0.44c-0.125-0.123-0.275-0.217-0.44-0.275c-0.177-0.063-0.362-0.1-0.55-0.11
		c-0.188,0.005-0.374,0.042-0.55,0.11c-0.336,0.116-0.599,0.379-0.715,0.715c-0.068,0.176-0.105,0.362-0.11,0.55l0,0
		c0.005,0.188,0.042,0.374,0.11,0.55c0.116,0.336,0.379,0.599,0.715,0.715C14.318,5.406,14.504,5.443,14.692,5.448z"/>
	<path id="Path_1470" style="fill:#BAC4C9;" d="M18.709,0.055h1.211v1.1h-1.211V0.055z M18.764,1.871h1.156v4.953h-1.156V1.871z"/>
	<path id="Path_1471" style="fill:#BAC4C9;" d="M23.167,6.879c-0.372-0.005-0.743-0.06-1.1-0.165c-0.363-0.116-0.7-0.303-0.991-0.55
		l0.5-0.77c0.25,0.189,0.529,0.337,0.825,0.44c0.262,0.107,0.542,0.163,0.825,0.165c0.197,0.013,0.392-0.046,0.55-0.165
		c0.123-0.092,0.203-0.232,0.22-0.385l0,0c-0.002-0.086-0.042-0.167-0.11-0.22c-0.055-0.055-0.165-0.11-0.22-0.165l-0.33-0.165
		c-0.137-0.069-0.287-0.106-0.44-0.11c-0.165-0.055-0.385-0.11-0.55-0.165c-0.178-0.07-0.346-0.162-0.5-0.275
		c-0.154-0.099-0.286-0.231-0.385-0.385c-0.112-0.182-0.169-0.392-0.165-0.605l0,0c0.005-0.206,0.042-0.41,0.11-0.605
		c0.111-0.18,0.24-0.347,0.385-0.5c0.165-0.124,0.352-0.217,0.55-0.275c0.215-0.063,0.436-0.1,0.66-0.11
		c0.319,0.001,0.635,0.057,0.935,0.165c0.318,0.09,0.617,0.24,0.88,0.44l-0.44,0.825c-0.215-0.154-0.458-0.266-0.715-0.33
		c-0.209-0.086-0.435-0.123-0.66-0.11c-0.182-0.015-0.363,0.044-0.5,0.165c-0.097,0.083-0.157,0.202-0.165,0.33l0,0
		c0.002,0.086,0.042,0.167,0.11,0.22c0.084,0.067,0.176,0.123,0.275,0.165l0.33,0.165c0.137,0.069,0.287,0.106,0.44,0.11
		c0.192,0.049,0.377,0.123,0.55,0.22c0.165,0.11,0.33,0.165,0.5,0.275c0.154,0.099,0.286,0.231,0.385,0.385
		c0.112,0.161,0.169,0.354,0.165,0.55l0,0c0.011,0.231-0.046,0.461-0.165,0.66c-0.096,0.189-0.227,0.359-0.385,0.5
		c-0.185,0.124-0.39,0.217-0.605,0.275H23.167z"/>
	<path id="Path_1472" style="fill:#BAC4C9;" d="M27.899,6.878c-0.185,0.012-0.371-0.007-0.55-0.055
		c-0.161-0.039-0.312-0.115-0.44-0.22c-0.123-0.125-0.217-0.275-0.275-0.44c-0.068-0.214-0.105-0.436-0.11-0.66V2.916h-0.606V1.925
		h0.605V0.55h1.156v1.376H29v0.991h-1.321v2.421c-0.015,0.182,0.044,0.363,0.165,0.5c0.12,0.11,0.277,0.169,0.44,0.165
		c0.248-0.002,0.492-0.058,0.715-0.165v0.935c-0.165,0.055-0.275,0.165-0.44,0.165S28.064,6.878,27.899,6.878z"/>
	<path id="Path_1473" style="fill:#BAC4C9;" d="M32.246,6.934c-0.337-0.001-0.671-0.057-0.99-0.165
		c-0.317-0.111-0.601-0.3-0.825-0.55c-0.233-0.239-0.419-0.519-0.55-0.825c-0.131-0.334-0.206-0.688-0.22-1.046l0,0
		c-0.004-0.337,0.052-0.673,0.165-0.991c0.099-0.311,0.271-0.593,0.5-0.825c0.219-0.231,0.48-0.418,0.77-0.55
		c0.313-0.137,0.649-0.212,0.99-0.22c0.361-0.012,0.72,0.063,1.046,0.22c0.285,0.139,0.53,0.347,0.715,0.605
		c0.199,0.243,0.349,0.524,0.44,0.825c0.108,0.319,0.164,0.654,0.165,0.991v0.33H30.82c0.04,0.364,0.219,0.699,0.5,0.935
		c0.472,0.37,1.115,0.435,1.651,0.165c0.226-0.109,0.431-0.258,0.605-0.44l0.66,0.605c-0.223,0.278-0.505,0.503-0.825,0.66
		C33.05,6.841,32.651,6.935,32.246,6.934z M33.346,3.962c-0.01-0.171-0.047-0.34-0.11-0.5c-0.141-0.287-0.373-0.519-0.66-0.66
		c-0.16-0.063-0.329-0.1-0.5-0.11c-0.337-0.013-0.661,0.129-0.88,0.385c-0.243,0.257-0.397,0.584-0.44,0.935h2.586L33.346,3.962z"/>
	<path id="Path_1474" style="fill:#BAC4C9;" d="M35.713,1.871h1.156v1.1c0.142-0.345,0.369-0.648,0.66-0.88
		c0.319-0.231,0.707-0.347,1.1-0.33v1.211h-0.055c-0.225,0-0.448,0.037-0.66,0.11c-0.215,0.076-0.405,0.209-0.55,0.385
		c-0.162,0.169-0.276,0.378-0.33,0.605c-0.071,0.288-0.108,0.583-0.11,0.88v1.871h-1.156V1.871H35.713z"/>
	<path id="Path_1475" style="fill:#BAC4C9;" d="M41.876,6.934c-0.337-0.001-0.671-0.057-0.99-0.165
		c-0.317-0.111-0.601-0.3-0.825-0.55c-0.233-0.239-0.419-0.519-0.55-0.825c-0.131-0.334-0.205-0.688-0.22-1.046l0,0
		c-0.004-0.337,0.052-0.673,0.165-0.991c0.099-0.311,0.271-0.593,0.5-0.825c0.219-0.231,0.48-0.418,0.77-0.55
		c0.313-0.137,0.65-0.212,0.991-0.22c0.361-0.012,0.72,0.063,1.046,0.22c0.285,0.139,0.53,0.347,0.715,0.605
		c0.199,0.243,0.349,0.524,0.44,0.825c0.108,0.319,0.164,0.654,0.165,0.991v0.33h-3.632c0.04,0.364,0.219,0.699,0.5,0.935
		c0.472,0.37,1.115,0.435,1.651,0.165c0.226-0.109,0.431-0.258,0.605-0.44l0.66,0.605c-0.223,0.278-0.505,0.503-0.825,0.66
		C42.681,6.841,42.281,6.936,41.876,6.934z M42.976,3.962c-0.01-0.171-0.047-0.34-0.11-0.5c-0.141-0.287-0.373-0.519-0.66-0.66
		c-0.16-0.063-0.329-0.1-0.5-0.11c-0.337-0.013-0.661,0.129-0.88,0.385c-0.243,0.257-0.397,0.584-0.44,0.935h2.586L42.976,3.962z"/>
	<path id="Path_1476" style="fill:#BAC4C9;" d="M47.379,6.934c-0.283-0.002-0.563-0.058-0.825-0.165
		c-0.271-0.115-0.514-0.285-0.715-0.5c-0.229-0.232-0.401-0.514-0.5-0.825c-0.136-0.351-0.211-0.723-0.22-1.1l0,0
		c-0.003-0.373,0.053-0.744,0.165-1.1c0.099-0.311,0.271-0.593,0.5-0.825c0.201-0.215,0.444-0.385,0.715-0.5
		c0.28-0.113,0.579-0.169,0.88-0.165c0.349-0.001,0.692,0.094,0.99,0.275c0.257,0.157,0.481,0.363,0.66,0.605V0h1.156v6.823h-1.156
		V6C48.681,6.58,48.054,6.934,47.379,6.934L47.379,6.934z M47.654,5.943c0.188-0.01,0.373-0.047,0.55-0.11
		c0.179-0.059,0.334-0.175,0.44-0.33l0.33-0.5c0.068-0.214,0.105-0.436,0.11-0.66l0,0c-0.01-0.224-0.047-0.445-0.11-0.66
		c-0.041-0.203-0.159-0.382-0.33-0.5c-0.136-0.123-0.284-0.233-0.44-0.33c-0.176-0.068-0.362-0.105-0.55-0.11
		c-0.188,0.01-0.373,0.047-0.55,0.11c-0.179,0.059-0.334,0.175-0.44,0.33c-0.123,0.158-0.233,0.325-0.33,0.5
		c-0.063,0.215-0.1,0.436-0.11,0.66l0,0c0.01,0.224,0.047,0.445,0.11,0.66c0.041,0.203,0.159,0.382,0.33,0.5
		c0.136,0.123,0.284,0.233,0.44,0.33C47.271,5.927,47.464,5.966,47.654,5.943L47.654,5.943z"/>
	<path id="Path_1477" style="fill:#BAC4C9;" d="M54.202,1.871h1.156l0.991,3.412l1.1-3.412h0.991l1.1,3.412l0.99-3.412h1.156
		l-1.6,4.953H59.04l-1.1-3.357l-1.1,3.357h-0.991L54.202,1.871z"/>
	<path id="Path_1478" style="fill:#BAC4C9;" d="M62.677,0.055h1.211v1.1h-1.211V0.055z M62.732,1.871h1.156v4.953h-1.156V1.871z"/>
	<path id="Path_1479" style="fill:#BAC4C9;" d="M67.024,6.878c-0.185,0.012-0.371-0.007-0.55-0.055
		c-0.161-0.039-0.312-0.115-0.44-0.22c-0.123-0.125-0.217-0.275-0.275-0.44c-0.068-0.214-0.105-0.436-0.11-0.66V2.916h-0.606V1.925
		h0.605V0.55h1.156v1.376h1.321v0.991h-1.321v2.421c-0.015,0.182,0.044,0.363,0.165,0.5c0.12,0.11,0.277,0.169,0.44,0.165
		c0.248-0.002,0.492-0.058,0.715-0.165v0.935c-0.165,0.055-0.275,0.165-0.44,0.165S67.243,6.878,67.024,6.878z"/>
	<path id="Path_1480" style="fill:#BAC4C9;" d="M69.225,0h1.156v2.641c0.163-0.237,0.368-0.442,0.605-0.605
		c0.141-0.084,0.288-0.158,0.44-0.22c0.162-0.046,0.331-0.065,0.5-0.055c0.49-0.022,0.968,0.159,1.321,0.5
		c0.323,0.382,0.481,0.877,0.44,1.376v3.137h-1.162V3.962c0.01-0.316-0.087-0.626-0.275-0.88c-0.405-0.426-1.079-0.442-1.504-0.037
		c-0.013,0.012-0.025,0.024-0.037,0.037c-0.229,0.234-0.349,0.553-0.33,0.88v2.806h-1.154V0z"/>
</g>
<g id="Group_1237">
	<g id="Group_1229">
		<path id="Path_1481" style="fill:#FFFFFF;" d="M25.7,0C11.506,0,0,11.506,0,25.7s11.506,25.7,25.7,25.7s25.7-11.506,25.7-25.7l0,0
			C51.404,11.511,39.905,0.004,25.716,0C25.711,0,25.705,0,25.7,0 M25.7,4.237c11.883,0.001,21.515,9.635,21.514,21.518
			c-0.001,11.883-9.635,21.515-21.518,21.514C13.814,47.268,4.182,37.635,4.182,25.753C4.199,13.876,13.823,4.253,25.7,4.237"/>
	</g>
	<path id="Path_1482" style="fill:#FFFFFF;" d="M10.455,17.114h14.582v4.4h-9.52v3.137h8.638v4.182h-8.637v6.548h-5.063V17.114z"/>
	<g id="Group_1230" transform="translate(26.028 17.114)">
		<path id="Path_1483" style="fill:#FFFFFF;" d="M8.474,8.749c1.706,0,2.7-0.825,2.7-2.146V6.548c0-1.486-1.046-2.2-2.751-2.2h-3.36
			v4.4L8.474,8.749z M0.055,0h8.639c2.806,0,4.732,0.715,5.943,1.981c1.088,1.135,1.666,2.666,1.6,4.237v0.055
			c0.098,2.483-1.412,4.748-3.742,5.613l4.347,6.383h-5.836l-3.687-5.558H5.063v5.558H0V0H0.055z"/>
	</g>
	<path id="Path_1484" style="fill:#FFFFFF;" d="M61.411,17.884h7.924v0.77h-7.1v4.622h6.328v0.77h-6.328v5.118h-0.824V17.884z"/>
	<g id="Group_1231" transform="translate(70.931 17.884)">
		<path id="Path_1485" style="fill:#FFFFFF;" d="M0,6.6V0h0.825v6.493c0,2.641,1.431,4.182,3.8,4.182
			c2.256,0,3.742-1.376,3.742-4.072V0h0.825v6.493c0,3.247-1.871,4.953-4.622,4.953c-2.641,0-4.567-1.706-4.567-4.842"/>
	</g>
	<path id="Path_1486" style="fill:#FFFFFF;" d="M82.542,17.884h0.77l7.759,9.795v-9.795h0.825v11.281h-0.605L83.367,19.15v10.015
		h-0.825V17.884z"/>
	<g id="Group_1232" transform="translate(94.428 17.884)">
		<path id="Path_1487" style="fill:#FFFFFF;" d="M3.742,10.51c2.637,0.183,4.924-1.807,5.107-4.444
			C8.858,5.934,8.862,5.801,8.86,5.668V5.613C8.878,2.952,6.736,0.78,4.075,0.762C3.964,0.761,3.853,0.764,3.742,0.771H0.826v9.685
			h2.916V10.51z M0,0h3.742c3.522,0,6,2.421,6,5.613v0.055c0,3.192-2.421,5.613-6,5.613H0V0z"/>
		<path id="Path_1488" style="fill:#FFFFFF;" d="M16.398,5.833c1.871,0,3.3-0.935,3.3-2.586V3.192c0-1.486-1.211-2.476-3.247-2.476
			h-3.852v5.063h3.8L16.398,5.833z M11.776,0h4.732c1.164-0.046,2.303,0.346,3.192,1.1c0.549,0.555,0.847,1.311,0.825,2.091v0.055
			c0,1.871-1.376,2.972-3.3,3.192l3.687,4.787h-1.046l-3.577-4.677h-3.687v4.732h-0.826V0z"/>
	</g>
	<path id="Path_1489" style="fill:#FFFFFF;" d="M124.638,25.258l-2.971-6.548l-2.968,6.493h5.943L124.638,25.258z M121.282,17.829
		h0.825l5.228,11.336h-0.936l-1.43-3.136h-6.658l-1.431,3.137H116L121.282,17.829z"/>
	<rect id="Rectangle_1553" x="129.04" y="17.884" style="fill:#FFFFFF;" width="0.825" height="11.226"/>
	<g id="Group_1233" transform="translate(131.792 17.609)">
		<path id="Path_1490" style="fill:#FFFFFF;" d="M0,9.905L0.55,9.3c1.043,1.097,2.504,1.697,4.017,1.651
			c1.706,0,2.861-0.935,2.861-2.256V8.64c0-1.211-0.605-1.871-3.192-2.421c-2.7-0.55-3.8-1.486-3.8-3.192V2.972
			C0.436,1.321,1.977,0,4.068,0C5.481-0.052,6.86,0.441,7.92,1.376l-0.55,0.66C6.459,1.193,5.254,0.738,4.013,0.77
			c-1.651,0-2.751,0.935-2.751,2.146v0.055c0,1.211,0.605,1.926,3.3,2.476c2.586,0.55,3.687,1.486,3.687,3.082v0.055
			c0,1.816-1.541,3.082-3.742,3.082C2.83,11.692,1.211,11.06-0.005,9.905"/>
	</g>
	<rect id="Rectangle_1554" x="142.137" y="17.884" style="fill:#FFFFFF;" width="0.825" height="11.226"/>
	<path id="Path_1491" style="fill:#FFFFFF;" d="M145.604,17.884h0.825l7.759,9.795v-9.795h0.77v11.281h-0.605l-7.924-10.015v10.015
		h-0.825V17.884z"/>
	<g id="Group_1234" transform="translate(61.246 17.719)">
		<path id="Path_1492" style="fill:#FFFFFF;" d="M95.748,5.833L95.748,5.833c-0.129-3.09,2.272-5.7,5.362-5.828
			C101.175,0.002,101.241,0,101.306,0c1.514-0.043,2.988,0.488,4.127,1.486l-0.55,0.605c-0.982-0.919-2.287-1.413-3.632-1.376
			c-2.618,0.062-4.69,2.235-4.628,4.853c0.001,0.052,0.003,0.103,0.006,0.155v0.055c0,2.916,1.816,5.063,4.842,5.063
			c1.299-0.02,2.555-0.465,3.577-1.266V6.328h-3.742v-0.77h4.567v4.347c-1.217,1.074-2.777,1.679-4.4,1.706
			c-3.053,0.109-5.616-2.277-5.725-5.33c-0.005-0.149-0.005-0.299,0.002-0.448"/>
		<path id="Path_1493" style="fill:#FFFFFF;" d="M5.558,20.36c1.376,0,2.146-0.715,2.146-1.761v-0.055
			c0-1.211-0.825-1.816-2.2-1.816H2.753v3.632L5.558,20.36z M0,14.252h5.778c1.349-0.086,2.676,0.37,3.687,1.266
			c0.737,0.766,1.134,1.798,1.1,2.861v0.055c0.079,1.761-1.025,3.358-2.7,3.907l3.082,4.512H7.7L5,22.836H2.8v4.016H0.049v-12.6H0z"
			/>
	</g>
	<path id="Path_1494" style="fill:#FFFFFF;" d="M73.352,31.971h9.52v2.476h-6.768v2.531h5.943v2.476h-5.943v2.641h6.823v2.476
		h-9.575V31.971z"/>
	<g id="Group_1235" transform="translate(83.972 31.751)">
		<path id="Path_1495" style="fill:#FFFFFF;" d="M0,6.548L0,6.548c-0.042-3.575,2.822-6.507,6.396-6.549
			C6.464-0.002,6.532-0.001,6.6,0c1.809-0.092,3.583,0.519,4.952,1.706L9.795,3.8c-0.886-0.848-2.075-1.304-3.3-1.266
			C4.417,2.606,2.791,4.349,2.862,6.427c0,0.005,0,0.009,0.001,0.014v0.055c-0.124,2.091,1.47,3.886,3.56,4.01
			c0.08,0.005,0.16,0.007,0.24,0.007c0.922,0.023,1.827-0.247,2.586-0.77V7.924H6.443V5.5h5.5V11
			c-1.501,1.287-3.416,1.991-5.393,1.981c-3.426,0.188-6.355-2.437-6.543-5.862c-0.011-0.192-0.012-0.384-0.005-0.576"/>
		<path id="Path_1496" style="fill:#FFFFFF;" d="M13.537,7.429V0.22h2.751v7.154c0,2.036,1.046,3.137,2.7,3.137
			c1.706,0,2.7-1.046,2.7-3.027V0.22h2.749v7.1c0,3.8-2.146,5.668-5.558,5.668c-3.247,0.055-5.338-1.871-5.338-5.558"/>
	</g>
	<path id="Path_1497" style="fill:#FFFFFF;" d="M110.441,31.971h2.751v10.07h6.328v2.53h-9.079V31.971z"/>
	<path id="Path_1498" style="fill:#FFFFFF;" d="M127.94,39.29l-1.651-4.072l-1.651,4.072H127.94z M125.024,31.861h2.586
		l5.393,12.711h-2.916l-1.156-2.806h-5.338l-1.156,2.806h-2.806L125.024,31.861z"/>
	<path id="Path_1499" style="fill:#FFFFFF;" d="M135.317,34.502h-3.8v-2.531h10.4v2.531h-3.8v10.069h-2.8V34.502z"/>
	<g id="Group_1236" transform="translate(142.082 31.751)">
		<path id="Path_1500" style="fill:#FFFFFF;" d="M10.51,6.548L10.51,6.548c0.089-2.128-1.564-3.925-3.691-4.014
			C6.783,2.533,6.746,2.531,6.71,2.531C4.633,2.508,2.93,4.173,2.907,6.25c-0.001,0.063,0,0.125,0.003,0.188v0.055
			c-0.066,2.121,1.599,3.894,3.72,3.96c0.027,0.001,0.053,0.001,0.08,0.002c2.099,0.001,3.801-1.7,3.801-3.799
			C10.512,6.62,10.511,6.584,10.51,6.548 M0,6.548L0,6.548c0.074-3.693,3.127-6.627,6.82-6.553c3.568,0.071,6.451,2.931,6.552,6.498
			v0.055c-0.064,3.693-3.109,6.634-6.801,6.571C2.968,13.056,0.062,10.151,0,6.548"/>
		<path id="Path_1501" style="fill:#FFFFFF;" d="M20.526,6.328c1.376,0,2.146-0.715,2.146-1.761V4.512
			c0-1.211-0.825-1.816-2.2-1.816h-2.751v3.632L20.526,6.328z M14.968,0.22h5.778c1.349-0.086,2.676,0.37,3.687,1.266
			c0.737,0.766,1.134,1.798,1.1,2.861v0.055c0.079,1.761-1.025,3.358-2.7,3.907l3.085,4.511h-3.25l-2.7-4.017h-2.2v4.017h-2.751
			V0.22H14.968z"/>
	</g>
</g>
</svg>
