<?xml version="1.0" encoding="UTF-8"?>
<svg width="488px" height="488px" viewBox="0 0 488 488" version="1.1" xmlns="http://www.w3.org/2000/svg" xmlns:xlink="http://www.w3.org/1999/xlink">
    <title>icon</title>
    <g id="Horizontal" stroke="none" stroke-width="1" fill="none" fill-rule="evenodd">
        <g id="icon" fill-rule="nonzero">
            <rect id="Rectangle" fill="#D00E38" x="0" y="2.84217094e-14" width="487.69" height="487.94" rx="50"></rect>
            <path d="M317.32,267.74 C317.32,185.51 317.23,116.74 317.23,116.74 L262.88,116.74 L262.88,283.74 C262.88,310.146667 270.14,330.666667 284.66,345.3 C299.18,359.933333 319.293333,367.243333 345,367.23 C354.81,367.23 376.77,367.35 376.77,367.35 C353.82,359.33 317.32,350 317.32,267.74 Z" id="Path" fill="#FFFFFF"></path>
            <path d="M110.25,367.23 C110.25,367.23 132.25,367.11 142.07,367.11 C167.81,367.11 187.953333,359.8 202.5,345.18 C217.046667,330.56 224.32,310.05 224.32,283.65 L224.32,116.74 L169.88,116.74 C169.88,116.74 169.79,185.47 169.79,267.66 C169.79,349.85 133.22,359.21 110.25,367.23 Z" id="Path" fill="#FFFFFF"></path>
        </g>
    </g>
</svg>