<?xml version="1.0" encoding="UTF-8"?>
<svg width="908px" height="244px" viewBox="0 0 908 244" version="1.1" xmlns="http://www.w3.org/2000/svg" xmlns:xlink="http://www.w3.org/1999/xlink">
    <title>jl_logo_long_white_for_screen</title>
    <g id="jl_logo_long_white_for_screen" stroke="none" stroke-width="1" fill="none" fill-rule="evenodd">
        <g id="JL-Logo-Refresh_Long_White_For-Screen" fill="#FFFFFF" fill-rule="nonzero">
            <path d="M218.845,0 L25,0 C11.1928813,0 0,11.1928813 0,25 L0,218.97 C0,232.777119 11.1928813,243.97 25,243.97 L218.845,243.97 C225.475412,243.97 231.83426,241.336079 236.52267,236.64767 C241.211079,231.95926 243.845,225.600412 243.845,218.97 L243.845,25 C243.845,18.3695878 241.211079,12.0107399 236.52267,7.32233047 C231.83426,2.63392101 225.475412,0 218.845,0 Z M112.16,141.825 C112.16,155.025 108.523333,165.28 101.25,172.59 C93.9766667,179.9 83.905,183.555 71.035,183.555 C66.125,183.555 55.125,183.615 55.125,183.615 C66.625,179.615 84.895,174.93 84.895,133.83 C84.895,92.73 84.94,58.37 84.94,58.37 L112.16,58.37 L112.16,141.825 Z M172.5,183.615 C159.656667,183.615 149.603333,179.96 142.34,172.65 C135.076667,165.34 131.446667,155.08 131.449998,141.87 L131.449998,58.37 L158.625,58.37 C158.625,58.37 158.67,92.755 158.67,133.87 C158.67,174.985 176.92,179.665 188.385,183.675 C188.375,183.675 177.395,183.615 172.5,183.615 Z" id="Shape"></path>
            <path d="M355.715,58.115 L355.715,146.38 C355.715,151.223333 354.593333,155.033333 352.35,157.81 C350.106667,160.586667 346.623333,161.983333 341.9,162 C336.7,162 332.773333,160.286667 330.12,156.86 C327.466667,153.433333 326.133333,148.53 326.12,142.15 L301.5,142.15 C301.5,155.716667 305.223333,166.166667 312.67,173.5 C320.116667,180.833333 330.213333,184.5 342.96,184.5 C354.77,184.5 364.011667,181.166667 370.685,174.5 C377.358333,167.833333 380.691667,158.47 380.68501,146.41 L380.68501,58.115 L355.715,58.115 Z" id="Path"></path>
            <path d="M471.39,85.055 L471.39,137.16 C471.39,145.79 469.265,152.406667 465.015,157.01 C460.765,161.613333 455.036667,163.918333 447.83,163.925 C440.98,163.925 435.548333,161.768333 431.535,157.455 C427.521667,153.141667 425.51,147.086667 425.5,139.29 L425.5,85.055 L400.7,85.055 L400.7,142.125 C400.7,155.478333 404.065,165.876667 410.795,173.32 C417.525,180.763333 426.563333,184.49 437.91,184.5 C445.703333,184.5 452.583333,182.638333 458.55,178.915 C464.421781,175.305199 468.935874,169.855943 471.39,163.415 L471.39,183.27 L496.39,183.27 L496.39,85.055 L471.39,85.055 Z" id="Path"></path>
            <path d="M587.69,140.265 C584.463243,136.407413 580.320049,133.421218 575.64,131.58 C570.973333,129.75 564.921667,128.006667 557.485,126.35 C552.168333,125.05 548.093333,123.926667 545.26,122.98 C542.660629,122.170869 540.250989,120.846162 538.175,119.085 C536.287621,117.438818 535.245595,115.027639 535.34,112.525 C535.34,109.098333 536.521667,106.38 538.885,104.37 C541.248333,102.36 544.555,101.36 548.805,101.37 C554.121667,101.37 558.431667,102.788333 561.735,105.625 C565.038333,108.461667 567.165,112.241667 568.115,116.965 L591.5,116.965 C589.73,106.925 585.243333,98.89 578.04,92.86 C570.836667,86.83 561.27,83.8166667 549.34,83.8199972 C537.883333,83.8199972 528.908333,86.4866667 522.415,91.8199972 C515.921667,97.1533333 512.673333,104.065 512.67,112.555 C512.67,119.175 514.293333,124.373333 517.54,128.15 C520.669813,131.852453 524.696218,134.691077 529.235,136.395 C533.778333,138.108333 539.711667,139.791667 547.035,141.445 C552.351667,142.745 556.456667,143.868333 559.35,144.815 C562.033034,145.639767 564.508475,147.029219 566.61,148.89 C568.555772,150.64966 569.626078,153.178143 569.535,155.8 C569.535,159.11 568.413333,161.798333 566.17,163.865 C563.926667,165.931667 560.678333,166.965 556.425,166.965 C550.521667,166.965 545.738333,165.578333 542.075,162.805 C538.411667,160.031667 536.286667,156.22 535.7,151.37 L511.785,151.37 C513.435,162.003333 518.101667,170.186667 525.785,175.92 C533.468333,181.653333 543.68,184.513333 556.42,184.500046 C567.52,184.500046 576.353333,181.9 582.92,176.7 C589.486667,171.5 592.763333,164.706667 592.750041,156.319997 C592.74,149.576667 591.053333,144.225 587.69,140.265 Z" id="Path"></path>
            <path d="M654.03,161.8 C649.54,161.8 646.35,160.853333 644.46,158.96 C642.57,157.066667 641.626667,153.758333 641.63,149.035 L641.63,106.145 L663.595,106.145 L663.595,85.055 L641.63,85.055 L641.63,60.77 L616.63,60.77 L616.63,85.055 L603,85.055 L603,106.145 L616.64,106.145 L616.64,148.68 C616.64,161.09 619.563333,169.951667 625.41,175.265 C631.256667,180.578333 639.671667,183.245 650.655,183.265 L663.76,183.265 L663.76,161.8 L654.03,161.8 Z" id="Path"></path>
            <polygon id="Path" points="687.84 52.085 687.84 183.245 700.415 183.245 700.415 52.085"></polygon>
            <path d="M739.77,51.555 C738.103333,50.0183333 735.918333,49.25 733.215,49.25 C730.511667,49.25 728.296667,50.0183333 726.57,51.555 C724.853333,53.095 723.996667,55.1633333 724,57.76 C723.925365,60.0419956 724.86666,62.2395702 726.57,63.76 C728.28,65.2933333 730.495,66.0616667 733.215,66.0650108 C735.935,66.0683333 738.12,65.3 739.77,63.76 C741.430558,62.2147761 742.342068,60.0271515 742.27,57.76 C742.256667,55.16 741.423333,53.0916667 739.77,51.555 Z M726.835,86.47 L726.835,183.245 L739.415,183.245 L739.415,86.47 L726.835,86.47 Z" id="Shape"></path>
            <path d="M788.725,65.645 C792.325,62.2816667 798.613333,60.6566667 807.59,60.77 L807.59,49.77 C794.95,49.2966667 785.678333,51.7766667 779.775,57.21 C773.871667,62.6433333 770.92,70.7966667 770.92,81.67 L770.92,86.455 L756.57,86.455 L756.57,97.455 L770.92,97.455 L770.92,183.245 L783.32,183.245 L783.32,97.46 L807.59,97.46 L807.59,86.46 L783.32,86.46 L783.32,82.56 C783.32,74.6533333 785.121667,69.015 788.725,65.645 Z" id="Path"></path>
            <path d="M883.23,167.645 C877.326667,172.021667 870.005,174.208333 861.265,174.205 C855.426183,174.24824 849.659685,172.911975 844.435,170.305 C839.235,167.705 835.013333,163.658333 831.77,158.165 C828.526667,152.671667 826.843333,145.848333 826.72,137.695 L906.79,137.695 C907.283367,134.707347 907.520895,131.683043 907.5,128.655 C907.562086,121.104857 905.702068,113.663067 902.095,107.03 C898.495,100.416667 893.24,95.13 886.33,91.17 C879.42,87.21 871.241667,85.23 861.795,85.23 C852.585,85.23 844.406667,87.21 837.26,91.17 C830.105539,95.1285956 824.276123,101.107574 820.5,108.36 C816.5,115.863333 814.5,124.696667 814.5,134.86 C814.5,145.023333 816.5,153.856667 820.5,161.36 C824.267861,168.611717 830.090759,174.591144 837.24,178.55 C844.413333,182.516667 852.598333,184.5 861.795,184.5 C874.075,184.5 884.231667,181.31 892.265,174.93 C900.298333,168.55 905.2,160.216667 906.97,149.93 L893.86,149.93 C892.68,157.366667 889.136667,163.271667 883.23,167.645 Z M831.945,111.195 C835.195,105.821667 839.416667,101.833333 844.61,99.23 C849.953211,96.6008115 855.840351,95.2664843 861.795,95.335 C867.689027,95.2792511 873.513194,96.6136705 878.795,99.23 C883.991667,101.833333 888.126667,105.851667 891.2,111.285 C894.152788,116.622932 895.505058,122.698595 895.095,128.785 L826.72,128.785 C827.033095,122.588733 828.824667,116.557394 831.945,111.195 L831.945,111.195 Z" id="Shape"></path>
        </g>
    </g>
</svg>