<?xml version="1.0" encoding="UTF-8"?>
<svg width="150px" height="124px" viewBox="0 0 150 124" version="1.1" xmlns="http://www.w3.org/2000/svg" xmlns:xlink="http://www.w3.org/1999/xlink">
    <title>Logo</title>
    <g id="Logo" stroke="none" stroke-width="1" fill="none" fill-rule="evenodd">
        <g id="JL-Logo-Refresh_Stacked_Colour_For-Screen" fill-rule="nonzero">
            <path d="M19.60125,92.35625 L19.60125,114.125 C19.60125,117.0975 18.7754167,119.407083 17.12375,121.05375 C15.4720833,122.700417 13.1845833,123.523333 10.26125,123.522501 C7.10375,123.522501 4.60375,122.619167 2.76125,120.8125 C0.91875,119.005833 -0.00166666667,116.427083 -2.25937641e-06,113.07625 L6.095,113.07625 C6.095,114.64875 6.42375,115.857083 7.08125,116.70125 C7.73875,117.545417 8.71166667,117.96875 9.99999774,117.97125 C11.1666667,117.97125 12.0291667,117.62875 12.5875,116.94375 C13.1458333,116.25875 13.4225,115.319167 13.4175,114.125 L13.4175,92.35625 L19.60125,92.35625 Z" id="Path" fill="#3C3C3B"></path>
            <path d="M48.23375,99 L48.23375,123.2175 L42.05125,123.2175 L42.05125,118.32125 C41.4418792,119.911561 40.3244531,121.256163 38.8725,122.14625 C37.395,123.062917 35.6920833,123.52125 33.76375,123.52125 C30.9579167,123.52125 28.7216667,122.604583 27.055,120.77125 C25.3883333,118.937917 24.555,116.37375 24.555,113.07875 L24.555,99 L30.69375,99 L30.69375,112.375 C30.69375,114.299167 31.1908333,115.7925 32.185,116.855 C33.1791667,117.9175 34.52375,118.449583 36.21875,118.45125 C38.00125,118.45125 39.4179167,117.882917 40.46875,116.74625 C41.5195833,115.609583 42.0458333,113.9775 42.0475,111.85 L42.0475,99 L48.23375,99 Z" id="Path" fill="#3C3C3B"></path>
            <path d="M68.4475,100.92375 C70.2325,102.409583 71.3433333,104.393333 71.78,106.875 L65.9925,106.875 C65.7575,105.708333 65.23125,104.775833 64.41375,104.0775 C63.59625,103.379167 62.5291667,103.029167 61.2125,103.0275 C60.16,103.0275 59.3416667,103.2775 58.7575,103.7775 C58.1733333,104.2775 57.8816667,104.9475 57.8825,105.7875 C57.8591832,106.405052 58.1170661,106.999883 58.58375,107.405 C59.0972289,107.83908 59.6921841,108.166305 60.33375,108.3675 C61.0345833,108.600833 62.0429167,108.8775 63.35875,109.1975 C65.2004167,109.605833 66.7004167,110.035833 67.85875,110.4875 C69.0156812,110.941162 70.0406002,111.677299 70.84,112.62875 C71.6733333,113.60625 72.09,114.925 72.09,116.585 C72.09,118.655 71.27875,120.330833 69.65625,121.6125 C68.03375,122.894167 65.84875,123.535 63.10125,123.535 C59.94375,123.535 57.415,122.826667 55.515,121.41 C53.615,119.993333 52.46,117.975417 52.05,115.35625 L57.97,115.35625 C58.1158333,116.55125 58.6420833,117.49125 59.54875,118.17625 C60.4554167,118.86125 61.6395833,119.203333 63.10125,119.2025 C64.1529167,119.2025 64.9566667,118.9475 65.5125,118.4375 C66.0683333,117.9275 66.3458333,117.264583 66.345,116.44875 C66.3697719,115.799582 66.1062019,115.172688 65.625,114.73625 C65.1027264,114.279684 64.4896993,113.938876 63.82625,113.73625 C63.1095833,113.50375 62.09375,113.227083 60.77875,112.90625 C58.96625,112.497917 57.4975,112.08125 56.3725,111.65625 C55.2487938,111.237532 54.2509023,110.538277 53.47375,109.625 C52.66875,108.6925 52.2666667,107.41 52.2675,105.7775 C52.2675,103.68 53.07125,101.975417 54.67875,100.66375 C56.28625,99.3520833 58.5079167,98.6962472 61.34375,98.6962472 C64.29625,98.6945833 66.6641667,99.4370833 68.4475,100.92375 Z" id="Path" fill="#3C3C3B"></path>
            <path d="M89.67,117.9275 L89.67,123.2175 L86.42,123.2175 C83.7016667,123.2175 81.6183333,122.561667 80.17,121.25 C78.7216667,119.938333 77.9979167,117.7525 77.99875,114.6925 L77.99875,104.20125 L74.625,104.20125 L74.625,99 L78,99 L78,93.01125 L84.1825,93.01125 L84.1825,99 L89.625,99 L89.625,104.20125 L84.1875,104.20125 L84.1875,114.78 C84.1875,115.946667 84.4216667,116.762917 84.89,117.22875 C85.3583333,117.694583 86.1475,117.9275 87.2575,117.9275 L89.67,117.9275 Z" id="Path" fill="#3C3C3B"></path>
            <polygon id="Path" fill="#3C3C3B" points="98.74125 90.875 98.74125 123.22375 95.625 123.22375 95.625 90.875"></polygon>
            <path d="M105.215,90.73875 C105.639167,90.3604167 106.187083,90.1708333 106.85875,90.1699973 C107.530417,90.1691667 108.072083,90.35875 108.48375,90.73875 C108.89375,91.1179167 109.098333,91.6279167 109.0975,92.26875 C109.116921,92.8285605 108.892013,93.3691608 108.48125,93.75 C108.072917,94.1291667 107.53125,94.3183333 106.85625,94.3175027 C106.18125,94.3166667 105.634167,94.1275 105.215,93.75 C104.792207,93.3740256 104.558967,92.8291874 104.57875,92.26375 C104.57875,91.62625 104.790833,91.1179167 105.215,90.73875 Z M108.39375,99.35 L108.39375,123.2175 L105.28125,123.2175 L105.28125,99.35 L108.39375,99.35 Z" id="Shape" fill="#3C3C3B"></path>
            <path d="M120.6,94.21375 C119.7075,95.0470833 119.261667,96.4383333 119.2625,98.3875 L119.2625,99.35 L125.27,99.35 L125.27,102.06 L119.2625,102.06 L119.2625,123.2175 L116.1925,123.2175 L116.1925,102.06 L112.64125,102.06 L112.64125,99.35 L116.1925,99.35 L116.1925,98.17 C116.1925,95.4883333 116.923333,93.4775 118.385,92.1375 C119.846667,90.7975 122.141667,90.1854167 125.27,90.30125 L125.27,93.01125 C123.0475,92.9829167 121.490833,93.38375 120.6,94.21375 Z" id="Path" fill="#3C3C3B"></path>
            <path d="M143.9925,119.375 C145.454167,118.2975 146.329167,116.839167 146.6175,115 L149.8675,115 C149.428333,117.535 148.215,119.589583 146.2275,121.16375 C144.24,122.737917 141.725833,123.524583 138.685,123.523751 C136.405,123.523751 134.380833,123.035833 132.6125,122.06 C130.844382,121.084865 129.403036,119.610039 128.46875,117.82 C127.475417,115.97 126.978333,113.791667 126.977499,111.285 C126.976667,108.778333 127.474167,106.6 128.47,104.75 C129.404286,102.959961 130.845632,101.485135 132.61375,100.51 C134.382083,99.5333333 136.40625,99.045 138.68625,99.045 C141.025417,99.045 143.05,99.5333333 144.76,100.51 C146.47,101.486667 147.770833,102.790417 148.6625,104.42125 C149.553885,106.054994 150.014204,107.888956 150,109.75 C150.005385,110.49655 149.946838,111.24219 149.825,111.97875 L130,111.97875 C130.029167,113.990417 130.445833,115.673333 131.25,117.0275 C132.054167,118.381667 133.099167,119.381667 134.385,120.0275 C135.678691,120.670246 137.105479,120.999538 138.55,120.98875 C140.7175,120.987917 142.531667,120.45 143.9925,119.375 Z M134.43375,102.5 C133.14625,103.140833 132.10125,104.124167 131.29875,105.45 C130.524934,106.769238 130.079509,108.25513 130,109.7825 L146.925,109.7825 C147.027318,108.282066 146.692563,106.784136 145.96125,105.47 C145.200417,104.13 144.177083,103.139167 142.89125,102.4975 C140.216396,101.214093 137.103604,101.214093 134.42875,102.4975 L134.43375,102.5 Z" id="Shape" fill="#3C3C3B"></path>
            <rect id="Rectangle" fill="#D00E38" x="37.48625" y="0.1025" width="74.02375" height="73.79375" rx="6.25"></rect>
            <path d="M85.65,40.595 C85.65,28.15875 85.63625,17.7575 85.63625,17.7575 L77.38625,17.7575 L77.38625,43.01375 C77.38625,47.0070833 78.4879167,50.1104167 80.69125,52.32375 C82.8945833,54.5370833 85.9466667,55.6429167 89.8475,55.64125 C91.3375,55.64125 94.67,55.66 94.67,55.66 C91.19125,54.445 85.65,53.03125 85.65,40.595 Z" id="Path" fill="#FFFFFF"></path>
            <path d="M54.22125,55.64125 C54.22125,55.64125 57.56,55.6225 59.05125,55.6225 C62.9579167,55.6225 66.015,54.5170833 68.2225,52.30625 C70.43,50.0954167 71.53375,46.9933333 71.53375,43 L71.53375,17.7575 L63.27125,17.7575 C63.27125,17.7575 63.2575,28.15125 63.2575,40.5825 C63.2575,53.01375 57.7075,54.4275 54.22125,55.64125 Z" id="Path" fill="#FFFFFF"></path>
        </g>
    </g>
</svg>