<?xml version="1.0" encoding="UTF-8"?>
<svg width="2500px" height="2244px" viewBox="0 0 2500 2244" version="1.1" xmlns="http://www.w3.org/2000/svg" xmlns:xlink="http://www.w3.org/1999/xlink">
    <title>Justlife vertical red SVG shrinkable</title>
    <g id="Justlife-vertical-red-SVG-shrinkable" stroke="none" stroke-width="1" fill="none" fill-rule="evenodd">
        <g id="Group" transform="translate(688.622754, 269.461078)">
            <rect id="Rectangle" fill="#D00E38" x="0" y="0" width="1152.69461" height="1137.72455" rx="69.9300699"></rect>
            <path d="M628.742515,269.461078 L750.434949,269.461078 C750.434949,454.702107 750.434949,575.784133 750.434949,632.707158 C750.434949,673.228633 749.83696,768.743538 818.832632,842.55051 C853.565147,877.283203 885.012154,900.438332 913.173653,912.015896 C835.729956,915.875084 779.480575,910.086302 744.425509,894.64955 C667.935283,860.966524 629.374285,792.465936 628.742515,689.147784 L628.742515,269.461078 Z" id="Rectangle" fill="#FFFFFF"></path>
            <path d="M269.461078,269.461078 L391.153512,269.461078 C391.153512,454.702107 391.153512,575.784133 391.153512,632.707158 C391.153512,673.228633 390.555523,768.743538 459.551195,842.55051 C494.28371,877.283203 525.730717,900.438332 553.892216,912.015896 C476.448519,915.875084 420.199138,910.086302 385.144072,894.64955 C308.653846,860.966524 270.092848,792.465936 269.461078,689.147784 L269.461078,269.461078 Z" id="Rectangle" fill="#FFFFFF" transform="translate(411.676647, 591.317365) scale(-1, 1) translate(-411.676647, -591.317365) "></path>
        </g>
        <text id="Just" fill="#3C3C3B" fill-rule="nonzero" font-family="Raleway-Bold, Raleway" font-size="619.237913" font-weight="bold" line-spacing="530.30303">
            <tspan x="239.520958" y="2083.02427">Just</tspan>
        </text>
        <text id="life" fill="#3C3C3B" fill-rule="nonzero" font-family="Raleway-Regular, Raleway" font-size="571.095571" font-weight="normal" letter-spacing="-2.60180197">
            <tspan x="1511.97605" y="2080.2683">life</tspan>
        </text>
    </g>
</svg>
