<?xml version="1.0" encoding="UTF-8"?>
<svg xmlns="http://www.w3.org/2000/svg" xmlns:xlink="http://www.w3.org/1999/xlink" width="300px" height="269px" viewBox="0 0 429 385" version="1.1">
  <!-- Generator: Sketch 63.1 (92452) - https://sketch.com -->
  <title>Artboard</title>
  <desc>Created with Sketch.</desc>
  <g id="Artboard" stroke="none" stroke-width="1" fill="none" fill-rule="evenodd">
    <g id="Group" transform="translate(118.167665, 46.239521)">
      <rect id="Rectangle" fill="#D00E38" x="0" y="0" width="197.802395" height="195.233533"></rect>
      <path d="M107.892216,46.239521 L128.774637,46.239521 C128.774637,78.0268815 128.774637,98.8045573 128.774637,108.572548 C128.774637,115.526033 128.672022,131.916391 140.51168,144.581668 C146.471779,150.541798 151.868086,154.515218 156.700599,156.501928 C143.411261,157.164164 133.758867,156.170809 127.743417,153.521863 C114.617695,147.741856 108.000627,135.987155 107.892216,118.25776 L107.892216,46.239521 Z" id="Rectangle" fill="#FFFFFF"></path>
      <path d="M46.239521,46.239521 L67.1219426,46.239521 C67.1219426,78.0268815 67.1219426,98.8045573 67.1219426,108.572548 C67.1219426,115.526033 67.0193277,131.916391 78.858985,144.581668 C84.8190846,150.541798 90.215391,154.515218 95.0479042,156.501928 C81.7585659,157.164164 72.1061721,156.170809 66.0907227,153.521863 C52.9649999,147.741856 46.3479326,135.987155 46.239521,118.25776 L46.239521,46.239521 Z" id="Rectangle" fill="#FFFFFF" transform="translate(70.643713, 101.470060) scale(-1, 1) translate(-70.643713, -101.470060) "></path>
    </g>
    <text id="Just" fill="#3C3C3B" font-family="Raleway-Bold, Raleway" font-size="106.261226" font-weight="bold">
      <tspan x="41.1017964" y="356.886228">Just</tspan>
    </text>
    <text id="life" fill="#3C3C3B" font-family="Raleway-Regular, Raleway" font-size="98.4149329" font-weight="normal" letter-spacing="-0.448359571">
      <tspan x="259.45509" y="342.179641">life</tspan>
    </text>
  </g>
</svg>
